<?xml version="1.0" encoding="UTF-8"?>
<!DOCTYPE svg PUBLIC "-//W3C//DTD SVG 1.1//EN" "http://www.w3.org/Graphics/SVG/1.1/DTD/svg11.dtd">
<svg xmlns="http://www.w3.org/2000/svg" version="1.1" width="195px" height="31px" style="shape-rendering:geometricPrecision; text-rendering:geometricPrecision; image-rendering:optimizeQuality; fill-rule:evenodd; clip-rule:evenodd" xmlns:xlink="http://www.w3.org/1999/xlink">
<g><path style="opacity:1" fill="#fbfcfc" d="M -0.5,-0.5 C 64.5,-0.5 129.5,-0.5 194.5,-0.5C 194.5,9.83333 194.5,20.1667 194.5,30.5C 129.5,30.5 64.5,30.5 -0.5,30.5C -0.5,20.1667 -0.5,9.83333 -0.5,-0.5 Z"/></g>
<g><path style="opacity:1" fill="#131313" d="M 13.5,1.5 C 14.5,1.5 15.5,1.5 16.5,1.5C 16.5,2.5 16.5,3.5 16.5,4.5C 14.8333,4.5 13.1667,4.5 11.5,4.5C 11.6133,9.518 11.9466,14.518 12.5,19.5C 11.5,19.5 10.5,19.5 9.5,19.5C 9.16667,14.8333 8.83333,10.1667 8.5,5.5C 6.4727,5.66212 4.4727,5.49546 2.5,5C 2.83333,4.66667 3.16667,4.33333 3.5,4C 6.95229,3.11534 10.2856,2.282 13.5,1.5 Z"/></g>
<g><path style="opacity:1" fill="#36dce1" d="M 82.5,2.5 C 85.9496,1.75635 87.6162,3.08968 87.5,6.5C 81.0741,5.10644 79.0741,7.60644 81.5,14C 85.1674,16.2741 88.5007,15.9408 91.5,13C 90.1667,12 90.1667,11 91.5,10C 95.2984,6.81413 99.6317,5.81413 104.5,7C 108.5,11 108.5,15 104.5,19C 100.058,20.3783 96.5575,19.2116 94,15.5C 87.6529,19.973 81.9862,19.3063 77,13.5C 76.1757,8.48183 78.0091,4.81517 82.5,2.5 Z"/></g>
<g><path style="opacity:1" fill="#1b1b1b" d="M 61.5,14.5 C 59.1673,11.9974 57.0007,9.33073 55,6.5C 54.3333,7.16667 53.6667,7.83333 53,8.5C 52.5014,12.1516 52.3347,15.8183 52.5,19.5C 51.5,19.5 50.5,19.5 49.5,19.5C 49.0182,15.5508 48.0182,11.7175 46.5,8C 48.1641,6.23256 49.3308,6.73256 50,9.5C 50.2735,7.67109 51.1068,6.17109 52.5,5C 56.8479,4.76207 61.1812,5.0954 65.5,6C 67.1247,6.85252 67.4581,7.85252 66.5,9C 64.5568,8.69482 62.5568,8.69482 60.5,9C 63.2802,10.8123 65.7802,12.979 68,15.5C 68.3622,21.391 65.8622,22.891 60.5,20C 57.6378,17.4425 57.9711,15.6092 61.5,14.5 Z"/></g>
<g><path style="opacity:1" fill="#3cdde1" d="M 136.5,4.5 C 142.952,5.39229 145.452,9.05895 144,15.5C 142.106,18.8442 139.273,20.1776 135.5,19.5C 136.263,22.1411 136.43,24.8078 136,27.5C 135,28.8333 134,28.8333 133,27.5C 132.317,21.2369 131.151,15.0702 129.5,9C 130.436,6.09907 131.603,5.9324 133,8.5C 134.032,6.97331 135.199,5.63997 136.5,4.5 Z"/></g>
<g><path style="opacity:1" fill="#34dce0" d="M 163.5,5.5 C 165.124,5.36007 166.29,6.02674 167,7.5C 169,4.83333 171,4.83333 173,7.5C 174.904,10.9231 175.737,14.5898 175.5,18.5C 174.5,18.5 173.5,18.5 172.5,18.5C 170.962,7.38114 169.129,7.0478 167,17.5C 166,18.8333 165,18.8333 164,17.5C 163.501,13.5138 163.334,9.51383 163.5,5.5 Z"/></g>
<g><path style="opacity:1" fill="#171717" d="M 21.5,5.5 C 28.1926,5.68527 31.0259,9.01861 30,15.5C 26.2943,20.2676 22.2943,20.601 18,16.5C 17.9071,13.9925 17.0738,11.8259 15.5,10C 17.3893,8.23586 19.3893,6.73586 21.5,5.5 Z"/></g>
<g><path style="opacity:1" fill="#0d0d0d" d="M 32.5,6.5 C 33.9778,6.23798 35.3112,6.57131 36.5,7.5C 35.4383,10.1029 35.2716,12.7695 36,15.5C 37.9376,16.8602 39.6043,16.5268 41,14.5C 41.4974,11.854 41.6641,9.1873 41.5,6.5C 42.5,6.5 43.5,6.5 44.5,6.5C 45.3724,11.4466 44.0391,15.6132 40.5,19C 37.3637,20.0405 34.8637,19.2072 33,16.5C 32.5017,13.1832 32.335,9.8499 32.5,6.5 Z"/></g>
<g><path style="opacity:1" fill="#31dce0" d="M 152.5,5.5 C 158.467,4.93059 160.134,7.09726 157.5,12C 158.266,14.4005 159.933,15.9005 162.5,16.5C 159.219,19.3991 156.719,18.7324 155,14.5C 152.83,18.2599 149.83,19.2599 146,17.5C 145.339,11.9887 147.506,7.98868 152.5,5.5 Z"/></g>
<g><path style="opacity:1" fill="#31dce0" d="M 176.5,6.5 C 177.5,6.5 178.5,6.5 179.5,6.5C 179.838,8.85398 180.338,11.1873 181,13.5C 182.396,15.5268 184.062,15.8602 186,14.5C 186.495,12.5273 186.662,10.5273 186.5,8.5C 187.833,8.5 189.167,8.5 190.5,8.5C 189.724,15.1373 189.391,21.8039 189.5,28.5C 188.5,28.5 187.5,28.5 186.5,28.5C 186.5,25.1667 186.5,21.8333 186.5,18.5C 178.575,18.5622 175.242,14.5622 176.5,6.5 Z"/></g>
<g><path style="opacity:1" fill="#3cdde1" d="M 114.5,7.5 C 117.278,7.02166 119.278,8.02166 120.5,10.5C 125.375,7.10708 128.208,8.44042 129,14.5C 129.495,16.4727 129.662,18.4727 129.5,20.5C 128.178,20.67 127.011,20.3366 126,19.5C 124.752,8.90524 123.252,8.90524 121.5,19.5C 120.5,19.5 119.5,19.5 118.5,19.5C 116.586,7.57204 115.253,7.57204 114.5,19.5C 113.167,19.5 111.833,19.5 110.5,19.5C 110.448,15.8019 110.114,12.1352 109.5,8.5C 110.822,8.33003 111.989,8.66337 113,9.5C 113.717,8.9558 114.217,8.28913 114.5,7.5 Z"/></g>
<g><path style="opacity:1" fill="#f7fdfd" d="M 135.5,8.5 C 141.488,8.66395 142.821,11.164 139.5,16C 137.888,16.7203 136.388,16.5536 135,15.5C 134.297,13.0709 134.463,10.7375 135.5,8.5 Z"/></g>
<g><path style="opacity:1" fill="#f3fdfd" d="M 153.5,8.5 C 154.376,8.36912 155.043,8.70245 155.5,9.5C 154.342,12.1712 152.509,14.1712 150,15.5C 149.5,15.1667 149,14.8333 148.5,14.5C 149.497,11.845 151.164,9.84501 153.5,8.5 Z"/></g>
<g><path style="opacity:1" fill="#ededed" d="M 21.5,8.5 C 26.7086,8.36932 28.3753,10.7026 26.5,15.5C 24.8333,16.8333 23.1667,16.8333 21.5,15.5C 20.2857,13.1413 20.2857,10.808 21.5,8.5 Z"/></g>
<g><path style="opacity:1" fill="#fbfefe" d="M 98.5,9.5 C 103.486,9.30494 105.152,11.4716 103.5,16C 97.741,17.1387 96.0744,14.972 98.5,9.5 Z"/></g>
<g><path style="opacity:1" fill="#d7d7d7" d="M 61.5,14.5 C 64.2748,14.8338 64.9415,16.1671 63.5,18.5C 61.8888,17.6798 61.2222,16.3464 61.5,14.5 Z"/></g>
</svg>
